<svg xmlns="http://www.w3.org/2000/svg" id="sv" width="180" height="180" viewBox="0 0 180 180"><path id="0" fill="#8b5cf6" d="M90, 0 A90,90 0 0 1 101.27967933869294,0.7096375076444019 L97.5197862257953,30.473091671762937 A60,60 0 0 0 90,30 Z"></path><path id="1" fill="#a78bfa" d="M101.27967933869294, 0.7096375076444019 A90,90 0 0 1 128.3191413286894,8.565097115352756 L115.54609421912627,35.7100647435685 A60,60 0 0 0 97.5197862257953,30.473091671762937 Z"></path><path id="2" fill="#c4b5fd" d="M128.3191413286894, 8.565097115352756 A90,90 0 0 1 168.8663147164997,46.63982930109682 L142.57754314433313,61.093219534064545 A60,60 0 0 0 115.54609421912627,35.7100647435685 Z"></path><path id="3" fill="#ddd6fe" d="M168.8663147164997, 46.63982930109682 A90,90 0 1 1 89.98429203681187,0.0000013707783779182137 L89.98952802454124,30.000000913852254 A60,60 0 1 0 142.57754314433313,61.093219534064545 Z"></path></svg>