<?xml version="1.0" encoding="UTF-8" standalone="no"?>
<svg
   width="800"
   height="800"
   viewBox="0 0 211.66666 211.66667"
   version="1.1"
   id="svg8"
   inkscape:version="1.3.2 (091e20e, 2023-11-25, custom)"
   sodipodi:docname="arrow.svg"
   xmlns:inkscape="http://www.inkscape.org/namespaces/inkscape"
   xmlns:sodipodi="http://sodipodi.sourceforge.net/DTD/sodipodi-0.dtd"
   xmlns="http://www.w3.org/2000/svg"
   xmlns:svg="http://www.w3.org/2000/svg"
   xmlns:rdf="http://www.w3.org/1999/02/22-rdf-syntax-ns#"
   xmlns:cc="http://creativecommons.org/ns#"
   xmlns:dc="http://purl.org/dc/elements/1.1/">
  <defs
     id="defs2" />
  <sodipodi:namedview
     id="base"
     pagecolor="#ffffff"
     bordercolor="#666666"
     borderopacity="1.0"
     inkscape:pageopacity="0.0"
     inkscape:pageshadow="2"
     inkscape:zoom="0.49497475"
     inkscape:cx="-67.680221"
     inkscape:cy="178.797"
     inkscape:document-units="px"
     inkscape:current-layer="layer1"
     inkscape:document-rotation="0"
     showgrid="true"
     units="px"
     showborder="false"
     inkscape:pagecheckerboard="true"
     inkscape:showpageshadow="2"
     inkscape:deskcolor="#d1d1d1"
     showguides="false"
     inkscape:window-width="1920"
     inkscape:window-height="1017"
     inkscape:window-x="1916"
     inkscape:window-y="1072"
     inkscape:window-maximized="1">
    <inkscape:grid
       id="grid1"
       units="px"
       originx="0"
       originy="0"
       spacingx="52.916666"
       spacingy="52.916666"
       empcolor="#0099e5"
       empopacity="0.30196078"
       color="#0099e5"
       opacity="0.14901961"
       empspacing="5"
       dotted="false"
       gridanglex="30"
       gridanglez="30"
       visible="true" />
  </sodipodi:namedview>
  <metadata
     id="metadata5">
    <rdf:RDF>
      <cc:Work
         rdf:about="">
        <dc:format>image/svg+xml</dc:format>
        <dc:type
           rdf:resource="http://purl.org/dc/dcmitype/StillImage" />
      </cc:Work>
    </rdf:RDF>
  </metadata>
  <g
     inkscape:label="Layer 1"
     inkscape:groupmode="layer"
     id="layer1">
    <g
       id="g6"
       transform="translate(0.6513438,-5.4863289)">
      <path
         id="path6"
         style="color:#000000;fill:#4c1d95;stroke:none;stroke-width:0.79375;stroke-dasharray:none;stroke-opacity:1"
         d="M 0.0436289,46.784546 C -0.15600656,80.73934 16.698937,117.55729 41.118555,135.51591 65.51123,153.45472 102.99041,161.82008 155.71582,159.48767 h 10.0509 v 10.01009 c 0,4.02396 -0.25515,8.87473 8.6071,4.84154 l 30.89941,-14.06242 c 2.87731,-1.51202 4.65329,-2.55856 4.76016,-3.71514 0.0696,-0.75276 0.89508,-5.96066 -0.60596,-6.96533 -0.70255,-0.47023 -3.05726,3.42308 -4.1542,2.84664 l -30.89941,-14.06241 c -8.86225,-4.03318 -8.6071,0.81758 -8.6071,4.84153 v 10.00907 h -10.13426 l -0.0849,0.004 C 43.152329,158.22327 39.196999,68.535973 39.288826,52.916663 Z"
         sodipodi:nodetypes="csccsccssccsccccc" />
      <path
         id="path5"
         style="color:#000000;display:inline;fill:#ede9fe;stroke:none;stroke-width:0.79375;stroke-dasharray:none;stroke-opacity:1"
         d="M 0.0436289,46.784546 C -0.15600664,80.739339 16.191258,111.20744 40.610876,129.16606 65.00355,147.10487 102.48273,155.47024 155.20814,153.13783 h 10.0509 v 10.01009 c 0,4.02396 -0.25516,8.87472 8.6071,4.84153 l 30.89941,-14.06242 c 5.62647,-2.95671 7.04165,-4.13344 0,-7.83382 l -30.89941,-14.06242 c -8.86226,-4.03318 -8.6071,0.81758 -8.6071,4.84153 v 10.00908 h -10.13427 l -0.0849,0.004 C 42.64465,151.87343 44.034711,62.403856 44.126538,46.784546 Z" />
    </g>
  </g>
</svg>
