<svg id="visual" viewBox="0 0 960 150" width="960" height="150" xmlns="http://www.w3.org/2000/svg" xmlns:xlink="http://www.w3.org/1999/xlink" version="1.1"><rect x="0" y="0" width="960" height="150" fill="#c4b5fd"></rect><path d="M0 57L16 54C32 51 64 45 96 45.7C128 46.3 160 53.7 192 60.2C224 66.7 256 72.3 288 67.3C320 62.3 352 46.7 384 38.2C416 29.7 448 28.3 480 35.2C512 42 544 57 576 61.8C608 66.7 640 61.3 672 62.3C704 63.3 736 70.7 768 69.5C800 68.3 832 58.7 864 52.2C896 45.7 928 42.3 944 40.7L960 39L960 151L944 151C928 151 896 151 864 151C832 151 800 151 768 151C736 151 704 151 672 151C640 151 608 151 576 151C544 151 512 151 480 151C448 151 416 151 384 151C352 151 320 151 288 151C256 151 224 151 192 151C160 151 128 151 96 151C64 151 32 151 16 151L0 151Z" fill="#8b5cf6"></path><path d="M0 48L16 48.2C32 48.3 64 48.7 96 56.2C128 63.7 160 78.3 192 85.2C224 92 256 91 288 91.2C320 91.3 352 92.7 384 85.7C416 78.7 448 63.3 480 60.8C512 58.3 544 68.7 576 73.2C608 77.7 640 76.3 672 78.2C704 80 736 85 768 80.5C800 76 832 62 864 61C896 60 928 72 944 78L960 84L960 151L944 151C928 151 896 151 864 151C832 151 800 151 768 151C736 151 704 151 672 151C640 151 608 151 576 151C544 151 512 151 480 151C448 151 416 151 384 151C352 151 320 151 288 151C256 151 224 151 192 151C160 151 128 151 96 151C64 151 32 151 16 151L0 151Z" fill="#7647d4"></path><path d="M0 104L16 102.7C32 101.3 64 98.7 96 96.3C128 94 160 92 192 89.5C224 87 256 84 288 87.5C320 91 352 101 384 101.7C416 102.3 448 93.7 480 92.2C512 90.7 544 96.3 576 101.8C608 107.3 640 112.7 672 111C704 109.3 736 100.7 768 94.7C800 88.7 832 85.3 864 82.8C896 80.3 928 78.7 944 77.8L960 77L960 151L944 151C928 151 896 151 864 151C832 151 800 151 768 151C736 151 704 151 672 151C640 151 608 151 576 151C544 151 512 151 480 151C448 151 416 151 384 151C352 151 320 151 288 151C256 151 224 151 192 151C160 151 128 151 96 151C64 151 32 151 16 151L0 151Z" fill="#6132b4"></path><path d="M0 115L16 115.7C32 116.3 64 117.7 96 119.2C128 120.7 160 122.3 192 124.2C224 126 256 128 288 127.3C320 126.7 352 123.3 384 121.5C416 119.7 448 119.3 480 118.8C512 118.3 544 117.7 576 119.8C608 122 640 127 672 129C704 131 736 130 768 127C800 124 832 119 864 116.2C896 113.3 928 112.7 944 112.3L960 112L960 151L944 151C928 151 896 151 864 151C832 151 800 151 768 151C736 151 704 151 672 151C640 151 608 151 576 151C544 151 512 151 480 151C448 151 416 151 384 151C352 151 320 151 288 151C256 151 224 151 192 151C160 151 128 151 96 151C64 151 32 151 16 151L0 151Z" fill="#4c1d95"></path></svg>