<svg id="visual" viewBox="0 0 960 150" width="960" height="150" xmlns="http://www.w3.org/2000/svg" xmlns:xlink="http://www.w3.org/1999/xlink" version="1.1"><rect x="0" y="0" width="960" height="150" fill="#c4b5fd"></rect><path d="M0 97L16 92.5C32 88 64 79 96 79.7C128 80.3 160 90.7 192 94.8C224 99 256 97 288 100.2C320 103.3 352 111.7 384 110.8C416 110 448 100 480 100C512 100 544 110 576 111.3C608 112.7 640 105.3 672 105.2C704 105 736 112 768 107.2C800 102.3 832 85.7 864 84.8C896 84 928 99 944 106.5L960 114L960 0L944 0C928 0 896 0 864 0C832 0 800 0 768 0C736 0 704 0 672 0C640 0 608 0 576 0C544 0 512 0 480 0C448 0 416 0 384 0C352 0 320 0 288 0C256 0 224 0 192 0C160 0 128 0 96 0C64 0 32 0 16 0L0 0Z" fill="#8b5cf6"></path><path d="M0 99L16 97C32 95 64 91 96 84.3C128 77.7 160 68.3 192 64.5C224 60.7 256 62.3 288 61C320 59.7 352 55.3 384 52.8C416 50.3 448 49.7 480 55.8C512 62 544 75 576 82.5C608 90 640 92 672 91.2C704 90.3 736 86.7 768 83.3C800 80 832 77 864 79C896 81 928 88 944 91.5L960 95L960 0L944 0C928 0 896 0 864 0C832 0 800 0 768 0C736 0 704 0 672 0C640 0 608 0 576 0C544 0 512 0 480 0C448 0 416 0 384 0C352 0 320 0 288 0C256 0 224 0 192 0C160 0 128 0 96 0C64 0 32 0 16 0L0 0Z" fill="#7647d4"></path><path d="M0 33L16 36.7C32 40.3 64 47.7 96 54.3C128 61 160 67 192 64.8C224 62.7 256 52.3 288 47.3C320 42.3 352 42.7 384 47.8C416 53 448 63 480 63.5C512 64 544 55 576 51.2C608 47.3 640 48.7 672 52.5C704 56.3 736 62.7 768 64.8C800 67 832 65 864 60.2C896 55.3 928 47.7 944 43.8L960 40L960 0L944 0C928 0 896 0 864 0C832 0 800 0 768 0C736 0 704 0 672 0C640 0 608 0 576 0C544 0 512 0 480 0C448 0 416 0 384 0C352 0 320 0 288 0C256 0 224 0 192 0C160 0 128 0 96 0C64 0 32 0 16 0L0 0Z" fill="#6132b4"></path><path d="M0 36L16 37.8C32 39.7 64 43.3 96 40.2C128 37 160 27 192 22.5C224 18 256 19 288 19.7C320 20.3 352 20.7 384 23.8C416 27 448 33 480 36C512 39 544 39 576 39.3C608 39.7 640 40.3 672 39.2C704 38 736 35 768 34.3C800 33.7 832 35.3 864 37.5C896 39.7 928 42.3 944 43.7L960 45L960 0L944 0C928 0 896 0 864 0C832 0 800 0 768 0C736 0 704 0 672 0C640 0 608 0 576 0C544 0 512 0 480 0C448 0 416 0 384 0C352 0 320 0 288 0C256 0 224 0 192 0C160 0 128 0 96 0C64 0 32 0 16 0L0 0Z" fill="#4c1d95"></path></svg>