<svg id="visual" viewBox="0 0 960 150" width="960" height="150" xmlns="http://www.w3.org/2000/svg" xmlns:xlink="http://www.w3.org/1999/xlink" version="1.1"><path d="M0 112L22.8 110C45.7 108 91.3 104 137 103.8C182.7 103.7 228.3 107.3 274 110.3C319.7 113.3 365.3 115.7 411.2 103.8C457 92 503 66 548.8 55C594.7 44 640.3 48 686 57C731.7 66 777.3 80 823 94.5C868.7 109 914.3 124 937.2 131.5L960 139L960 0L937.2 0C914.3 0 868.7 0 823 0C777.3 0 731.7 0 686 0C640.3 0 594.7 0 548.8 0C503 0 457 0 411.2 0C365.3 0 319.7 0 274 0C228.3 0 182.7 0 137 0C91.3 0 45.7 0 22.8 0L0 0Z" fill="#ddd6fe"></path><path d="M0 118L22.8 107C45.7 96 91.3 74 137 62.3C182.7 50.7 228.3 49.3 274 50.5C319.7 51.7 365.3 55.3 411.2 65.5C457 75.7 503 92.3 548.8 92.5C594.7 92.7 640.3 76.3 686 74.3C731.7 72.3 777.3 84.7 823 92.7C868.7 100.7 914.3 104.3 937.2 106.2L960 108L960 0L937.2 0C914.3 0 868.7 0 823 0C777.3 0 731.7 0 686 0C640.3 0 594.7 0 548.8 0C503 0 457 0 411.2 0C365.3 0 319.7 0 274 0C228.3 0 182.7 0 137 0C91.3 0 45.7 0 22.8 0L0 0Z" fill="#aea1d7"></path><path d="M0 52L22.8 53C45.7 54 91.3 56 137 55.2C182.7 54.3 228.3 50.7 274 55.8C319.7 61 365.3 75 411.2 69.8C457 64.7 503 40.3 548.8 35.8C594.7 31.3 640.3 46.7 686 47.7C731.7 48.7 777.3 35.3 823 29.5C868.7 23.7 914.3 25.3 937.2 26.2L960 27L960 0L937.2 0C914.3 0 868.7 0 823 0C777.3 0 731.7 0 686 0C640.3 0 594.7 0 548.8 0C503 0 457 0 411.2 0C365.3 0 319.7 0 274 0C228.3 0 182.7 0 137 0C91.3 0 45.7 0 22.8 0L0 0Z" fill="#826fb1"></path><path d="M0 10L22.8 12.3C45.7 14.7 91.3 19.3 137 29.2C182.7 39 228.3 54 274 53.5C319.7 53 365.3 37 411.2 27.7C457 18.3 503 15.7 548.8 21.8C594.7 28 640.3 43 686 46.2C731.7 49.3 777.3 40.7 823 40.2C868.7 39.7 914.3 47.3 937.2 51.2L960 55L960 0L937.2 0C914.3 0 868.7 0 823 0C777.3 0 731.7 0 686 0C640.3 0 594.7 0 548.8 0C503 0 457 0 411.2 0C365.3 0 319.7 0 274 0C228.3 0 182.7 0 137 0C91.3 0 45.7 0 22.8 0L0 0Z" fill="#583f8b"></path><path d="M0 4L22.8 5.2C45.7 6.3 91.3 8.7 137 9.8C182.7 11 228.3 11 274 10C319.7 9 365.3 7 411.2 6.8C457 6.7 503 8.3 548.8 8.2C594.7 8 640.3 6 686 6.3C731.7 6.7 777.3 9.3 823 12.3C868.7 15.3 914.3 18.7 937.2 20.3L960 22L960 0L937.2 0C914.3 0 868.7 0 823 0C777.3 0 731.7 0 686 0C640.3 0 594.7 0 548.8 0C503 0 457 0 411.2 0C365.3 0 319.7 0 274 0C228.3 0 182.7 0 137 0C91.3 0 45.7 0 22.8 0L0 0Z" fill="#2e1065"></path></svg>