<svg id="visual" viewBox="0 0 960 150" width="960" height="150" xmlns="http://www.w3.org/2000/svg" xmlns:xlink="http://www.w3.org/1999/xlink" version="1.1"><rect x="0" y="0" width="960" height="150" fill="#fffbff"></rect><path d="M0 123L20 112.8C40 102.7 80 82.3 120 72.8C160 63.3 200 64.7 240 69.3C280 74 320 82 360 88.5C400 95 440 100 480 94.3C520 88.7 560 72.3 600 72.3C640 72.3 680 88.7 720 95.3C760 102 800 99 840 100.5C880 102 920 108 940 111L960 114L960 0L940 0C920 0 880 0 840 0C800 0 760 0 720 0C680 0 640 0 600 0C560 0 520 0 480 0C440 0 400 0 360 0C320 0 280 0 240 0C200 0 160 0 120 0C80 0 40 0 20 0L0 0Z" fill="#a78bfa"></path><path d="M0 57L20 62C40 67 80 77 120 75.7C160 74.3 200 61.7 240 58.7C280 55.7 320 62.3 360 64.7C400 67 440 65 480 69.3C520 73.7 560 84.3 600 90.3C640 96.3 680 97.7 720 95.3C760 93 800 87 840 87.7C880 88.3 920 95.7 940 99.3L960 103L960 0L940 0C920 0 880 0 840 0C800 0 760 0 720 0C680 0 640 0 600 0C560 0 520 0 480 0C440 0 400 0 360 0C320 0 280 0 240 0C200 0 160 0 120 0C80 0 40 0 20 0L0 0Z" fill="#7d60c6"></path><path d="M0 51L20 51C40 51 80 51 120 52.3C160 53.7 200 56.3 240 51.7C280 47 320 35 360 31.7C400 28.3 440 33.7 480 36.5C520 39.3 560 39.7 600 45.5C640 51.3 680 62.7 720 61C760 59.3 800 44.7 840 43C880 41.3 920 52.7 940 58.3L960 64L960 0L940 0C920 0 880 0 840 0C800 0 760 0 720 0C680 0 640 0 600 0C560 0 520 0 480 0C440 0 400 0 360 0C320 0 280 0 240 0C200 0 160 0 120 0C80 0 40 0 20 0L0 0Z" fill="#553794"></path><path d="M0 42L20 39.7C40 37.3 80 32.7 120 32.8C160 33 200 38 240 36.8C280 35.7 320 28.3 360 27.3C400 26.3 440 31.7 480 31.7C520 31.7 560 26.3 600 21.7C640 17 680 13 720 17.3C760 21.7 800 34.3 840 37.8C880 41.3 920 35.7 940 32.8L960 30L960 0L940 0C920 0 880 0 840 0C800 0 760 0 720 0C680 0 640 0 600 0C560 0 520 0 480 0C440 0 400 0 360 0C320 0 280 0 240 0C200 0 160 0 120 0C80 0 40 0 20 0L0 0Z" fill="#2e1065"></path></svg>