<svg id="visual" viewBox="0 0 960 150" width="960" height="150" xmlns="http://www.w3.org/2000/svg" xmlns:xlink="http://www.w3.org/1999/xlink" version="1.1"><path d="M0 115L22.8 114C45.7 113 91.3 111 137 108.5C182.7 106 228.3 103 274 102.2C319.7 101.3 365.3 102.7 411.2 100.3C457 98 503 92 548.8 93.8C594.7 95.7 640.3 105.3 686 105.8C731.7 106.3 777.3 97.7 823 98.7C868.7 99.7 914.3 110.3 937.2 115.7L960 121L960 0L937.2 0C914.3 0 868.7 0 823 0C777.3 0 731.7 0 686 0C640.3 0 594.7 0 548.8 0C503 0 457 0 411.2 0C365.3 0 319.7 0 274 0C228.3 0 182.7 0 137 0C91.3 0 45.7 0 22.8 0L0 0Z" fill="#4c1d95"></path><path d="M0 89L22.8 88.3C45.7 87.7 91.3 86.3 137 84.3C182.7 82.3 228.3 79.7 274 81.3C319.7 83 365.3 89 411.2 88.2C457 87.3 503 79.7 548.8 79.2C594.7 78.7 640.3 85.3 686 87.5C731.7 89.7 777.3 87.3 823 88.3C868.7 89.3 914.3 93.7 937.2 95.8L960 98L960 0L937.2 0C914.3 0 868.7 0 823 0C777.3 0 731.7 0 686 0C640.3 0 594.7 0 548.8 0C503 0 457 0 411.2 0C365.3 0 319.7 0 274 0C228.3 0 182.7 0 137 0C91.3 0 45.7 0 22.8 0L0 0Z" fill="#6945b0"></path><path d="M0 79L22.8 77.5C45.7 76 91.3 73 137 67.7C182.7 62.3 228.3 54.7 274 54.2C319.7 53.7 365.3 60.3 411.2 64.3C457 68.3 503 69.7 548.8 71.3C594.7 73 640.3 75 686 74.5C731.7 74 777.3 71 823 66C868.7 61 914.3 54 937.2 50.5L960 47L960 0L937.2 0C914.3 0 868.7 0 823 0C777.3 0 731.7 0 686 0C640.3 0 594.7 0 548.8 0C503 0 457 0 411.2 0C365.3 0 319.7 0 274 0C228.3 0 182.7 0 137 0C91.3 0 45.7 0 22.8 0L0 0Z" fill="#866aca"></path><path d="M0 50L22.8 50.3C45.7 50.7 91.3 51.3 137 52.2C182.7 53 228.3 54 274 54.2C319.7 54.3 365.3 53.7 411.2 54C457 54.3 503 55.7 548.8 51.5C594.7 47.3 640.3 37.7 686 32.8C731.7 28 777.3 28 823 30C868.7 32 914.3 36 937.2 38L960 40L960 0L937.2 0C914.3 0 868.7 0 823 0C777.3 0 731.7 0 686 0C640.3 0 594.7 0 548.8 0C503 0 457 0 411.2 0C365.3 0 319.7 0 274 0C228.3 0 182.7 0 137 0C91.3 0 45.7 0 22.8 0L0 0Z" fill="#a48fe4"></path><path d="M0 18L22.8 19.3C45.7 20.7 91.3 23.3 137 23.5C182.7 23.7 228.3 21.3 274 20C319.7 18.7 365.3 18.3 411.2 19.3C457 20.3 503 22.7 548.8 22.2C594.7 21.7 640.3 18.3 686 19.5C731.7 20.7 777.3 26.3 823 28.5C868.7 30.7 914.3 29.3 937.2 28.7L960 28L960 0L937.2 0C914.3 0 868.7 0 823 0C777.3 0 731.7 0 686 0C640.3 0 594.7 0 548.8 0C503 0 457 0 411.2 0C365.3 0 319.7 0 274 0C228.3 0 182.7 0 137 0C91.3 0 45.7 0 22.8 0L0 0Z" fill="#c4b5fd"></path></svg>